<?xml version="1.0" encoding="UTF-8"?>
<!DOCTYPE svg PUBLIC "-//W3C//DTD SVG 1.1//EN" "http://www.w3.org/Graphics/SVG/1.1/DTD/svg11.dtd">
<svg xmlns="http://www.w3.org/2000/svg" version="1.1" width="512px" height="512px" style="shape-rendering:geometricPrecision; text-rendering:geometricPrecision; image-rendering:optimizeQuality; fill-rule:evenodd; clip-rule:evenodd" xmlns:xlink="http://www.w3.org/1999/xlink">
<g><path style="opacity:0.98" fill="#010002" d="M 357.5,66.5 C 354.357,70.24 350.357,71.4066 345.5,70C 317.995,57.9426 289.661,48.2759 260.5,41C 251.626,40.7146 242.96,42.0479 234.5,45C 153.73,68.623 81.563,107.456 18,161.5C 12.0261,172.783 13.8595,182.617 23.5,191C 91.6806,246.424 168.681,284.924 254.5,306.5C 292.385,298.205 328.718,285.539 363.5,268.5C 335.833,245 308.167,221.5 280.5,198C 266.136,203.019 251.47,203.686 236.5,200C 226.573,196.965 219.406,190.799 215,181.5C 211.596,170.46 214.429,161.293 223.5,154C 235.843,145.396 249.509,142.396 264.5,145C 279.622,146.465 290.456,153.965 297,167.5C 297.667,171.167 297.667,174.833 297,178.5C 295.581,181.974 294.248,185.307 293,188.5C 321.353,213.021 349.853,237.354 378.5,261.5C 417.998,241.8 454.665,217.967 488.5,190C 499.47,178.339 499.137,167.006 487.5,156C 452.451,127.327 414.451,102.994 373.5,83C 369.778,80.2034 368.778,76.7034 370.5,72.5C 370.574,70.5891 371.574,69.4224 373.5,69C 375.833,68.3333 378.167,68.3333 380.5,69C 425.8,91.0038 467.3,118.504 505,151.5C 507.74,155.647 509.907,159.98 511.5,164.5C 511.5,184.167 511.5,203.833 511.5,223.5C 508.827,230.984 504.494,237.484 498.5,243C 481.23,256.938 463.396,270.105 445,282.5C 444.667,315.5 444.333,348.5 444,381.5C 442.81,386.213 440.81,390.547 438,394.5C 428.028,402.984 417.695,410.984 407,418.5C 409.512,427.076 411.012,435.909 411.5,445C 408.599,470.909 394.266,482.242 368.5,479C 356.421,475.752 348.421,468.252 344.5,456.5C 322.966,465.736 300.966,473.902 278.5,481C 268.797,484.675 258.797,486.008 248.5,485C 215.409,476.748 183.743,464.748 153.5,449C 149.952,446.409 148.618,442.909 149.5,438.5C 152.293,434.829 155.96,433.662 160.5,435C 190.375,451.18 221.875,463.014 255,470.5C 285.682,463.49 315.016,452.823 343,438.5C 345.668,423.657 351.168,409.99 359.5,397.5C 346.284,383.004 346.284,368.67 359.5,354.5C 362.248,352.428 365.248,350.761 368.5,349.5C 369.665,340.853 369.832,332.186 369,323.5C 333.948,340.296 297.448,353.129 259.5,362C 256.167,362.667 252.833,362.667 249.5,362C 190.502,347.327 135.168,324.16 83.5,292.5C 83.44,291.957 83.1067,291.624 82.5,291.5C 81.1704,320.664 81.1704,349.664 82.5,378.5C 83.7957,383.633 86.7957,387.467 91.5,390C 105.309,400.739 119.643,410.739 134.5,420C 138.531,423.001 139.531,426.834 137.5,431.5C 133.99,434.833 129.99,435.333 125.5,433C 112.326,424.247 99.3257,415.247 86.5,406C 80.964,401.496 75.7974,396.663 71,391.5C 69.107,388.382 67.7736,385.049 67,381.5C 66.6667,348.5 66.3333,315.5 66,282.5C 47.6038,270.105 29.7705,256.938 12.5,243C 6.50589,237.484 2.17255,230.984 -0.5,223.5C -0.5,203.833 -0.5,184.167 -0.5,164.5C 3.25459,153.89 9.92126,145.39 19.5,139C 87.2581,85.4555 163.258,47.7889 247.5,26C 257.387,24.8887 267.054,25.8887 276.5,29C 301.003,35.9453 325.003,44.2786 348.5,54C 355.274,55.5885 358.274,59.7552 357.5,66.5 Z"/></g>
<g><path style="opacity:1" fill="#5d53ab" d="M 357.5,66.5 C 361.958,68.2288 366.291,70.2288 370.5,72.5C 368.778,76.7034 369.778,80.2034 373.5,83C 414.451,102.994 452.451,127.327 487.5,156C 499.137,167.006 499.47,178.339 488.5,190C 454.665,217.967 417.998,241.8 378.5,261.5C 349.853,237.354 321.353,213.021 293,188.5C 294.248,185.307 295.581,181.974 297,178.5C 297.667,174.833 297.667,171.167 297,167.5C 290.456,153.965 279.622,146.465 264.5,145C 249.509,142.396 235.843,145.396 223.5,154C 214.429,161.293 211.596,170.46 215,181.5C 219.406,190.799 226.573,196.965 236.5,200C 251.47,203.686 266.136,203.019 280.5,198C 308.167,221.5 335.833,245 363.5,268.5C 328.718,285.539 292.385,298.205 254.5,306.5C 168.681,284.924 91.6806,246.424 23.5,191C 13.8595,182.617 12.0261,172.783 18,161.5C 81.563,107.456 153.73,68.623 234.5,45C 242.96,42.0479 251.626,40.7146 260.5,41C 289.661,48.2759 317.995,57.9426 345.5,70C 350.357,71.4066 354.357,70.24 357.5,66.5 Z"/></g>
<g><path style="opacity:1" fill="#e8f0fb" d="M 244.5,159.5 C 251.508,159.334 258.508,159.5 265.5,160C 271.486,161.408 276.652,164.242 281,168.5C 283.823,175.032 281.989,179.865 275.5,183C 264.541,187.736 253.207,188.736 241.5,186C 237.127,184.287 233.293,181.787 230,178.5C 227.382,173.054 228.549,168.554 233.5,165C 237.259,163.121 240.925,161.287 244.5,159.5 Z"/></g>
<g><path style="opacity:1" fill="#443c7f" d="M 255.5,321.5 C 255.5,329.833 255.5,338.167 255.5,346.5C 256.5,346.5 257.5,346.5 258.5,346.5C 256.372,347.629 254.039,347.796 251.5,347C 166.35,324.927 90.0169,286.261 22.5,231C 19.1166,227.731 16.6166,223.897 15,219.5C 14.3333,213.833 14.3333,208.167 15,202.5C 85.4332,261.132 165.6,300.799 255.5,321.5 Z"/></g>
<g><path style="opacity:1" fill="#5c52a9" d="M 495.5,202.5 C 498.635,213.329 496.302,222.829 488.5,231C 456.442,257.367 421.942,280.201 385,299.5C 384.185,291.254 384.352,283.088 385.5,275C 425.052,254.899 461.719,230.733 495.5,202.5 Z"/></g>
<g><path style="opacity:1" fill="#5c52a9" d="M 258.5,346.5 C 257.5,346.5 256.5,346.5 255.5,346.5C 255.5,338.167 255.5,329.833 255.5,321.5C 294.879,312.985 332.712,299.985 369,282.5C 369.832,290.853 369.665,299.187 368.5,307.5C 333.367,324.877 296.7,337.877 258.5,346.5 Z"/></g>
<g><path style="opacity:1" fill="#2a254f" d="M 83.5,292.5 C 82.502,320.995 82.1687,349.662 82.5,378.5C 81.1704,349.664 81.1704,320.664 82.5,291.5C 83.1067,291.624 83.44,291.957 83.5,292.5 Z"/></g>
<g><path style="opacity:1" fill="#443c80" d="M 83.5,292.5 C 135.168,324.16 190.502,347.327 249.5,362C 252.833,362.667 256.167,362.667 259.5,362C 297.448,353.129 333.948,340.296 369,323.5C 369.832,332.186 369.665,340.853 368.5,349.5C 365.248,350.761 362.248,352.428 359.5,354.5C 359.44,353.957 359.107,353.624 358.5,353.5C 325.358,369.075 290.858,380.408 255,387.5C 216.952,379.873 180.452,367.539 145.5,350.5C 144.5,378.825 144.167,407.159 144.5,435.5C 142.33,433.914 139.996,432.58 137.5,431.5C 139.531,426.834 138.531,423.001 134.5,420C 119.643,410.739 105.309,400.739 91.5,390C 86.7957,387.467 83.7957,383.633 82.5,378.5C 82.1687,349.662 82.502,320.995 83.5,292.5 Z"/></g>
<g><path style="opacity:1" fill="#433b7e" d="M 428.5,378.5 C 428.667,357.831 428.5,337.164 428,316.5C 413.848,325.159 399.348,333.159 384.5,340.5C 384.169,332.14 384.502,323.807 385.5,315.5C 400.318,308.261 414.651,300.261 428.5,291.5C 429.83,320.664 429.83,349.664 428.5,378.5 Z"/></g>
<g><path style="opacity:1" fill="#5d53aa" d="M 428.5,378.5 C 427.828,381.343 426.495,383.843 424.5,386C 417.68,391.576 410.68,396.909 403.5,402C 401.945,403.289 400.279,403.956 398.5,404C 396.968,401.966 395.635,399.799 394.5,397.5C 406.182,385.023 407.348,371.69 398,357.5C 394.394,353.948 390.227,351.281 385.5,349.5C 384.516,346.572 384.183,343.572 384.5,340.5C 399.348,333.159 413.848,325.159 428,316.5C 428.5,337.164 428.667,357.831 428.5,378.5 Z"/></g>
<g><path style="opacity:1" fill="#5d53ab" d="M 359.5,354.5 C 346.284,368.67 346.284,383.004 359.5,397.5C 351.168,409.99 345.668,423.657 343,438.5C 315.016,452.823 285.682,463.49 255,470.5C 221.875,463.014 190.375,451.18 160.5,435C 155.96,433.662 152.293,434.829 149.5,438.5C 148.035,437.263 146.368,436.263 144.5,435.5C 144.167,407.159 144.5,378.825 145.5,350.5C 180.452,367.539 216.952,379.873 255,387.5C 290.858,380.408 325.358,369.075 358.5,353.5C 359.107,353.624 359.44,353.957 359.5,354.5 Z"/></g>
<g><path style="opacity:1" fill="#e2ebf7" d="M 371.5,363.5 C 385.348,362.173 390.848,368.173 388,381.5C 383.206,388.541 377.039,390.041 369.5,386C 362.323,377.749 362.99,370.249 371.5,363.5 Z"/></g>
<g><path style="opacity:1" fill="#e8f0fb" d="M 369.5,462.5 C 366.643,444.071 367.309,425.738 371.5,407.5C 375.202,402.193 379.036,402.193 383,407.5C 390.758,418.604 395.258,430.938 396.5,444.5C 394.09,460.851 385.09,466.851 369.5,462.5 Z"/></g>
<g><path style="opacity:1" fill="#d5e2f2" d="M 371.5,407.5 C 367.309,425.738 366.643,444.071 369.5,462.5C 361.244,459.012 357.244,452.679 357.5,443.5C 358.883,430.091 363.55,418.091 371.5,407.5 Z"/></g>
</svg>
