<?xml version="1.0" encoding="UTF-8"?>
<!DOCTYPE svg PUBLIC "-//W3C//DTD SVG 1.1//EN" "http://www.w3.org/Graphics/SVG/1.1/DTD/svg11.dtd">
<svg xmlns="http://www.w3.org/2000/svg" version="1.1" width="394px" height="334px" style="shape-rendering:geometricPrecision; text-rendering:geometricPrecision; image-rendering:optimizeQuality; fill-rule:evenodd; clip-rule:evenodd" xmlns:xlink="http://www.w3.org/1999/xlink">
<g><path style="opacity:1" fill="#fcfdfd" d="M -0.5,-0.5 C 64.5,-0.5 129.5,-0.5 194.5,-0.5C 193.162,4.36692 191.162,8.86692 188.5,13C 189.833,13.6667 191.167,13.6667 192.5,13C 191.289,11.8869 191.289,10.7202 192.5,9.5C 194.396,8.53443 196.396,8.2011 198.5,8.5C 198.5,10.1667 198.5,11.8333 198.5,13.5C 199.978,13.762 201.311,13.4287 202.5,12.5C 200.629,8.21637 198.962,3.88303 197.5,-0.5C 262.833,-0.5 328.167,-0.5 393.5,-0.5C 393.5,110.833 393.5,222.167 393.5,333.5C 262.167,333.5 130.833,333.5 -0.5,333.5C -0.5,222.167 -0.5,110.833 -0.5,-0.5 Z"/></g>
<g><path style="opacity:1" fill="#596e93" d="M 214.5,2.5 C 214.44,1.95691 214.107,1.62358 213.5,1.5C 212.818,2.24269 212.151,2.90935 211.5,3.5C 209.923,0.983175 208.09,0.983175 206,3.5C 205.517,2.55198 205.351,1.55198 205.5,0.5C 210.5,0.5 215.5,0.5 220.5,0.5C 220.657,1.87344 220.49,3.20677 220,4.5C 218.599,2.80784 216.766,2.14118 214.5,2.5 Z"/></g>
<g><path style="opacity:1" fill="#213d76" d="M 224.5,2.5 C 226.199,2.33982 227.866,2.50649 229.5,3C 228.033,4.09754 227.199,5.59754 227,7.5C 226.503,10.146 226.336,12.8127 226.5,15.5C 224.801,15.6602 223.134,15.4935 221.5,15C 223.718,11.2392 224.718,7.07251 224.5,2.5 Z"/></g>
<g><path style="opacity:1" fill="#223c6c" d="M 180.5,1.5 C 181.568,0.565525 182.901,0.232191 184.5,0.5C 184.826,4.88387 184.492,9.2172 183.5,13.5C 180.167,10.5 176.833,7.5 173.5,4.5C 172.348,7.10618 172.182,9.77284 173,12.5C 176.054,14.1229 175.554,14.7895 171.5,14.5C 167.366,-1.02947 171.199,-2.69614 183,9.5C 183.667,7.16667 183.667,4.83333 183,2.5C 182.329,1.74756 181.496,1.41423 180.5,1.5 Z"/></g>
<g><path style="opacity:1" fill="#1d4287" d="M 214.5,2.5 C 213.834,6.02079 213.167,9.68745 212.5,13.5C 211.893,13.3764 211.56,13.0431 211.5,12.5C 211.5,9.5 211.5,6.5 211.5,3.5C 212.151,2.90935 212.818,2.24269 213.5,1.5C 214.107,1.62358 214.44,1.95691 214.5,2.5 Z"/></g>
<g><path style="opacity:1" fill="#2e497c" d="M 194.5,-0.5 C 195.5,-0.5 196.5,-0.5 197.5,-0.5C 198.962,3.88303 200.629,8.21637 202.5,12.5C 201.311,13.4287 199.978,13.762 198.5,13.5C 198.5,11.8333 198.5,10.1667 198.5,8.5C 196.396,8.2011 194.396,8.53443 192.5,9.5C 191.289,10.7202 191.289,11.8869 192.5,13C 191.167,13.6667 189.833,13.6667 188.5,13C 191.162,8.86692 193.162,4.36692 194.5,-0.5 Z"/></g>
<g><path style="opacity:1" fill="#daebf0" d="M 194.5,3.5 C 195.837,4.31488 196.837,5.48155 197.5,7C 196.056,7.78052 194.723,7.61385 193.5,6.5C 194.127,5.58317 194.461,4.58317 194.5,3.5 Z"/></g>
<g><path style="opacity:1" fill="#274377" d="M 154.5,2.5 C 158.007,1.99353 161.174,2.66019 164,4.5C 164.825,6.7008 164.325,8.53413 162.5,10C 164.298,12.4725 166.632,14.1392 169.5,15C 164.834,16.4974 161.5,14.9974 159.5,10.5C 162.831,6.11313 161.831,3.7798 156.5,3.5C 156.379,7.82466 157.046,11.9913 158.5,16C 154.31,18.5845 152.976,17.7512 154.5,13.5C 154.308,10.0018 153.308,6.83516 151.5,4C 152.737,3.76791 153.737,3.26791 154.5,2.5 Z"/></g>
<g><path style="opacity:1" fill="#314b7d" d="M 236.5,3.5 C 247.132,3.59335 249.799,8.09335 244.5,17C 235.406,20.2346 231.239,17.0679 232,7.5C 233.397,5.92975 234.897,4.59641 236.5,3.5 Z"/></g>
<g><path style="opacity:1" fill="#f2f5f7" d="M 237.5,4.5 C 244.456,5.39244 246.289,9.05911 243,15.5C 240.034,18.2652 237.367,17.9318 235,14.5C 233.861,10.5789 234.695,7.24558 237.5,4.5 Z"/></g>
<g><path style="opacity:1" fill="#506484" d="M 214.5,2.5 C 213.956,6.67316 214.623,10.5065 216.5,14C 213.833,14.6667 211.167,14.6667 208.5,14C 209.527,13.4867 210.527,12.9867 211.5,12.5C 211.56,13.0431 211.893,13.3764 212.5,13.5C 213.167,9.68745 213.834,6.02079 214.5,2.5 Z"/></g>
<g><path style="opacity:1" fill="#3c5480" d="M 130.5,8.5 C 133.318,8.49516 134.485,9.8285 134,12.5C 132.556,10.8446 130.722,10.178 128.5,10.5C 129.326,14.1359 129.992,17.8026 130.5,21.5C 131.552,21.3505 132.552,21.5172 133.5,22C 131.344,23.4543 129.01,24.121 126.5,24C 128.209,19.395 127.209,15.5616 123.5,12.5C 121.971,12.5288 120.804,13.1955 120,14.5C 119.517,13.552 119.351,12.552 119.5,11.5C 123.489,11.3185 127.156,10.3185 130.5,8.5 Z"/></g>
<g><path style="opacity:1" fill="#304878" d="M 275.5,14.5 C 276.5,14.5 277.5,14.5 278.5,14.5C 279.254,19.4635 279.587,24.4635 279.5,29.5C 275.136,29.6281 274.136,28.2948 276.5,25.5C 275.99,23.9121 274.99,22.7455 273.5,22C 275.283,20.9335 275.783,19.4335 275,17.5C 273.333,19.5 271.667,21.5 270,23.5C 269.383,24.4491 269.549,25.2825 270.5,26C 268.831,26.1218 267.165,25.7885 265.5,25C 269.631,22.2213 272.964,18.7213 275.5,14.5 Z"/></g>
<g><path style="opacity:1" fill="#354c79" d="M 146.5,4.5 C 148.085,5.00238 148.585,6.00238 148,7.5C 143.552,5.33909 141.385,6.67242 141.5,11.5C 143.591,11.6816 145.591,11.3482 147.5,10.5C 148.583,11.365 148.749,12.365 148,13.5C 143.497,12.0084 141.997,13.5084 143.5,18C 144.5,18.3333 145.5,18.6667 146.5,19C 144.121,19.6139 141.788,19.9472 139.5,20C 140.022,19.4387 140.355,18.772 140.5,18C 139.128,14.9739 138.462,11.8073 138.5,8.5C 136.653,8.76579 135.986,8.43245 136.5,7.5C 139.954,6.48734 143.287,5.48734 146.5,4.5 Z"/></g>
<g><path style="opacity:1" fill="#334b7a" d="M 251.5,7.5 C 253.125,6.67485 254.792,7.00819 256.5,8.5C 258.133,11.9603 259.966,15.2936 262,18.5C 263.03,16.4117 263.863,14.245 264.5,12C 264.85,10.7425 265.517,10.4092 266.5,11C 265.25,15.241 263.75,19.4077 262,23.5C 259.083,19.3339 256.416,15.0006 254,10.5C 253.166,13.1724 252.332,15.839 251.5,18.5C 251.977,19.4776 252.643,20.3109 253.5,21C 251.831,21.1218 250.165,20.7885 248.5,20C 250.333,17.8927 251.499,15.3927 252,12.5C 252.78,10.6131 252.613,8.94639 251.5,7.5 Z"/></g>
<g><path style="opacity:1" fill="#2a4579" d="M 105.5,24.5 C 104.527,22.7499 103.193,21.2499 101.5,20C 102.93,18.5596 104.597,18.2263 106.5,19C 109.39,20.0285 112.224,21.1952 115,22.5C 115.5,22.1667 116,21.8333 116.5,21.5C 115.572,20.2322 115.405,18.8989 116,17.5C 117.854,20.7816 118.688,24.115 118.5,27.5C 114.5,25.5 110.5,23.5 106.5,21.5C 105.614,22.325 105.281,23.325 105.5,24.5 Z"/></g>
<g><path style="opacity:1" fill="#6f8395" d="M 176.5,21.5 C 178.948,20.5269 181.615,20.1936 184.5,20.5C 184.649,21.552 184.483,22.552 184,23.5C 181.959,22.5769 179.792,22.2436 177.5,22.5C 177.5,21.8333 177.167,21.5 176.5,21.5 Z"/></g>
<g><path style="opacity:1" fill="#2a4373" d="M 199.5,20.5 C 200.675,20.281 201.675,20.6143 202.5,21.5C 204.115,25.8957 206.115,30.0624 208.5,34C 206.167,34.6667 203.833,34.6667 201.5,34C 204.249,31.5769 203.749,30.0769 200,29.5C 196.251,30.0769 195.751,31.5769 198.5,34C 196.5,34.6667 194.5,34.6667 192.5,34C 193.416,33.6258 194.25,33.1258 195,32.5C 196.605,28.5151 198.105,24.5151 199.5,20.5 Z"/></g>
<g><path style="opacity:1" fill="#324a78" d="M 176.5,21.5 C 177.167,21.5 177.5,21.8333 177.5,22.5C 177.5,24.1667 177.5,25.8333 177.5,27.5C 179.78,27.2537 181.78,27.2537 183.5,27.5C 181.604,28.4656 179.604,28.7989 177.5,28.5C 177.5,30.1667 177.5,31.8333 177.5,33.5C 180.448,33.3241 183.114,33.3241 185.5,33.5C 181.245,34.8942 176.912,35.3942 172.5,35C 173.743,33.1303 174.41,30.9637 174.5,28.5C 174.41,26.0363 173.743,23.8697 172.5,22C 173.793,21.51 175.127,21.3433 176.5,21.5 Z"/></g>
<g><path style="opacity:1" fill="#405275" d="M 147.5,26.5 C 149.093,25.1328 150.426,25.4661 151.5,27.5C 151.333,27.8333 151.167,28.1667 151,28.5C 150.184,27.1772 149.017,26.5106 147.5,26.5 Z"/></g>
<g><path style="opacity:1" fill="#546a86" d="M 105.5,24.5 C 106.682,26.8381 108.348,28.8381 110.5,30.5C 109.264,31.3567 107.931,32.0234 106.5,32.5C 106.596,30.0707 106.263,27.4041 105.5,24.5 Z"/></g>
<g><path style="opacity:1" fill="#d9dce5" d="M 199.5,23.5 C 201.213,24.6354 201.88,26.302 201.5,28.5C 200.5,28.5 199.5,28.5 198.5,28.5C 198.629,26.7839 198.962,25.1172 199.5,23.5 Z"/></g>
<g><path style="opacity:1" fill="#334d7d" d="M 96.5,21.5 C 98.5144,24.5113 100.348,27.8446 102,31.5C 102.75,32.1258 103.584,32.6258 104.5,33C 103.109,34.02 101.609,34.8534 100,35.5C 98.8352,30.6381 96.3352,26.8047 92.5,24C 93.8584,23.0656 95.1917,22.2323 96.5,21.5 Z"/></g>
<g><path style="opacity:1" fill="#324b7c" d="M 286.5,19.5 C 286.56,18.9569 286.893,18.6236 287.5,18.5C 289.167,19.3333 290.833,20.1667 292.5,21C 289.601,23.9619 287.601,27.4619 286.5,31.5C 288.547,33.0152 290.881,33.8485 293.5,34C 292.407,35.3654 291.074,35.6987 289.5,35C 286.833,33.6667 284.167,32.3333 281.5,31C 284.163,29.1994 285.997,26.6994 287,23.5C 287.765,21.9343 287.598,20.6009 286.5,19.5 Z"/></g>
<g><path style="opacity:1" fill="#384f7a" d="M 215.5,21.5 C 218.881,21.4595 222.214,21.7929 225.5,22.5C 225.657,23.8734 225.49,25.2068 225,26.5C 222.03,21.7512 218.697,21.4178 215,25.5C 214.153,28.5876 214.653,31.4209 216.5,34C 219.758,34.6164 222.758,34.283 225.5,33C 222.638,35.4119 219.305,36.0786 215.5,35C 211.876,32.8387 210.709,29.672 212,25.5C 213.376,24.2949 214.542,22.9616 215.5,21.5 Z"/></g>
<g><path style="opacity:1" fill="#34487d" d="M 233.5,27.5 C 233.834,24.7252 235.167,24.0585 237.5,25.5C 238.65,29.9541 239.984,34.2875 241.5,38.5C 241.167,38.8333 240.833,39.1667 240.5,39.5C 238.885,38.846 237.218,38.346 235.5,38C 236.38,36.6439 236.714,35.1439 236.5,33.5C 234.774,33.1854 233.107,33.0187 231.5,33C 230.167,34.3333 230.167,35.6667 231.5,37C 229.711,37.5205 228.044,37.1871 226.5,36C 229.189,33.4517 231.523,30.6184 233.5,27.5 Z"/></g>
<g><path style="opacity:1" fill="#dfeaeb" d="M 233.5,27.5 C 234.117,27.3893 234.617,27.056 235,26.5C 235.798,28.2588 235.631,29.9255 234.5,31.5C 233.571,30.3112 233.238,28.9778 233.5,27.5 Z"/></g>
<g><path style="opacity:1" fill="#3e5281" d="M 160.5,22.5 C 163.167,22.5 165.833,22.5 168.5,22.5C 168.649,23.552 168.483,24.552 168,25.5C 162.77,22.0945 159.603,23.4278 158.5,29.5C 159.137,34.1313 161.804,36.1313 166.5,35.5C 166.859,33.2341 166.192,31.4007 164.5,30C 166.5,29.3333 168.5,29.3333 170.5,30C 169.357,36.0808 165.69,38.4142 159.5,37C 153.954,31.6762 154.288,26.8429 160.5,22.5 Z"/></g>
<g><path style="opacity:1" fill="#384f7f" d="M 247.5,27.5 C 252.242,27.1364 256.408,28.4698 260,31.5C 261.743,37.7574 259.41,41.4241 253,42.5C 249.882,42.1828 247.049,41.1828 244.5,39.5C 245.915,35.5912 246.915,31.5912 247.5,27.5 Z"/></g>
<g><path style="opacity:1" fill="#f2f5f6" d="M 250.5,28.5 C 257.702,29.7902 259.369,33.6236 255.5,40C 253.19,40.4966 250.857,40.6633 248.5,40.5C 248.541,36.3837 249.207,32.3837 250.5,28.5 Z"/></g>
<g><path style="opacity:1" fill="#39507e" d="M 147.5,26.5 C 146.791,27.404 145.791,27.7373 144.5,27.5C 144.5,29.1667 144.5,30.8333 144.5,32.5C 146.722,32.822 148.556,32.1554 150,30.5C 150.982,31.7589 151.315,33.0922 151,34.5C 149.301,33.5939 147.467,33.2606 145.5,33.5C 144.842,37.6772 146.508,39.1772 150.5,38C 151.667,37.5 152.5,36.6667 153,35.5C 153.684,36.7839 153.517,37.9505 152.5,39C 144.687,40.66 137.021,42.8266 129.5,45.5C 129.544,41.669 128.877,37.669 127.5,33.5C 126.448,33.6495 125.448,33.4828 124.5,33C 126.576,31.3067 128.909,30.64 131.5,31C 130.919,31.8926 130.585,32.8926 130.5,34C 131.275,36.8224 131.942,39.6557 132.5,42.5C 134.5,42.1667 136.5,41.8333 138.5,41.5C 138.633,38.1043 139.633,37.7709 141.5,40.5C 142.745,36.7863 142.579,33.1197 141,29.5C 140.25,28.8742 139.416,28.3742 138.5,28C 141.393,26.8512 144.393,26.3512 147.5,26.5 Z"/></g>
<g><path style="opacity:1" fill="#334a7d" d="M 115.5,35.5 C 117.765,35.4406 118.098,36.2739 116.5,38C 117.425,41.3481 118.758,44.5148 120.5,47.5C 122.815,46.7657 124.648,45.4324 126,43.5C 126.167,44 126.333,44.5 126.5,45C 123.59,47.481 120.257,49.3143 116.5,50.5C 116.636,46.8492 115.636,43.1825 113.5,39.5C 112.624,38.7492 111.624,38.2492 110.5,38C 112.315,37.2432 113.981,36.4098 115.5,35.5 Z"/></g>
<g><path style="opacity:1" fill="#39527e" d="M 265.5,33.5 C 265.735,32.9033 266.235,32.5699 267,32.5C 270.021,34.0073 273.188,35.0073 276.5,35.5C 276.649,36.552 276.483,37.552 276,38.5C 274.005,36.253 271.505,35.253 268.5,35.5C 268.5,37.1667 268.5,38.8333 268.5,40.5C 270.167,40.5 271.833,40.5 273.5,40.5C 273.719,41.675 273.386,42.675 272.5,43.5C 270.827,41.9137 268.827,41.2471 266.5,41.5C 266.034,43.2012 266.034,44.7012 266.5,46C 269.019,47.1559 271.352,47.6559 273.5,47.5C 272.667,47.8333 271.833,48.1667 271,48.5C 267.366,47.733 263.866,46.5664 260.5,45C 261.416,44.6258 262.25,44.1258 263,43.5C 264.167,40.5 265.333,37.5 266.5,34.5C 266.376,33.8933 266.043,33.56 265.5,33.5 Z"/></g>
<g><path style="opacity:1" fill="#4b5d80" d="M 280.5,43.5 C 279.914,45.8398 278.914,48.0065 277.5,50C 278.451,50.7175 278.617,51.5509 278,52.5C 277.097,51.2986 275.931,50.4652 274.5,50C 276.847,48.1275 278.847,45.9608 280.5,43.5 Z"/></g>
<g><path style="opacity:1" fill="#214378" d="M 101.5,42.5 C 110.202,40.7069 113.036,44.0402 110,52.5C 109.717,46.9028 106.883,43.5695 101.5,42.5 Z"/></g>
<g><path style="opacity:1" fill="#314a7c" d="M 288.5,48.5 C 290.227,44.535 292.894,43.7016 296.5,46C 295.333,46.5 294.5,47.3333 294,48.5C 292.548,51.737 291.381,55.0703 290.5,58.5C 289.088,57.1936 287.421,56.3603 285.5,56C 288.326,55.0388 289.993,53.0388 290.5,50C 290.164,48.9701 289.497,48.4701 288.5,48.5 Z"/></g>
<g><path style="opacity:1" fill="#50647f" d="M 84.5,52.5 C 86.5992,49.3361 88.9326,49.0028 91.5,51.5C 89.3702,51.2512 87.0368,51.5845 84.5,52.5 Z"/></g>
<g><path style="opacity:1" fill="#253c77" d="M 288.5,48.5 C 287.024,50.5 285.191,52.1666 283,53.5C 282.667,49.8333 282.333,46.1667 282,42.5C 281.617,43.056 281.117,43.3893 280.5,43.5C 280.539,41.0107 281.539,39.5107 283.5,39C 284,39.5 284.5,40 285,40.5C 285.333,43.5 285.667,46.5 286,49.5C 286.671,48.7476 287.504,48.4142 288.5,48.5 Z"/></g>
<g><path style="opacity:1" fill="#394e81" d="M 98.5,43.5 C 98.1025,46.4034 98.6025,49.4034 100,52.5C 102.166,54.1213 104.666,54.9546 107.5,55C 100.833,58.3325 96.8327,56.3325 95.5,49C 95.8627,46.8077 96.8627,44.9744 98.5,43.5 Z"/></g>
<g><path style="opacity:1" fill="#3d5381" d="M 305.5,58.5 C 307.279,57.4265 308.946,56.0931 310.5,54.5C 311.308,54.8076 311.975,55.3076 312.5,56C 310.35,57.4114 308.016,58.2447 305.5,58.5 Z"/></g>
<g><path style="opacity:1" fill="#384e80" d="M 305.5,58.5 C 303.852,60.4293 302.185,62.4293 300.5,64.5C 295.763,63.027 295.596,61.6937 300,60.5C 300.532,56.0908 300.532,51.7574 300,47.5C 301.41,48.7875 302.91,49.9542 304.5,51C 303.892,52.231 303.559,53.5643 303.5,55C 303.608,56.6811 304.275,57.8478 305.5,58.5 Z"/></g>
<g><path style="opacity:1" fill="#2c4679" d="M 84.5,52.5 C 82.3223,58.9953 84.6557,62.6619 91.5,63.5C 83.88,66.3878 80.38,63.7211 81,55.5C 81.7589,53.9371 82.9256,52.9371 84.5,52.5 Z"/></g>
<g><path style="opacity:1" fill="#3d536d" d="M 91.5,63.5 C 92.7927,61.7041 94.2927,60.0375 96,58.5C 95.8228,61.1858 94.3228,62.8524 91.5,63.5 Z"/></g>
<g><path style="opacity:1" fill="#21447a" d="M 66.5,81.5 C 65.1149,83.8835 63.1149,85.5501 60.5,86.5C 60.4932,77.295 64.3265,69.9617 72,64.5C 71.2907,70.4631 69.4574,76.1297 66.5,81.5 Z"/></g>
<g><path style="opacity:1" fill="#1d4379" d="M 330.5,87.5 C 328.823,85.4602 327.156,83.4602 325.5,81.5C 322.747,75.7448 320.914,69.7448 320,63.5C 326.828,68.6598 330.662,75.4931 331.5,84C 331.486,85.3847 331.152,86.5514 330.5,87.5 Z"/></g>
<g><path style="opacity:1" fill="#21447a" d="M 341.5,91.5 C 340.442,93.8084 339.276,96.1417 338,98.5C 337.148,97.4293 336.315,96.4293 335.5,95.5C 335.28,89.0304 336.114,82.697 338,76.5C 340.867,81.0993 342.034,86.0993 341.5,91.5 Z"/></g>
<g><path style="opacity:1" fill="#1d3e74" d="M 55.5,79.5 C 56.422,85.1883 56.422,90.855 55.5,96.5C 55.1667,97.1667 54.8333,97.8333 54.5,98.5C 52.8726,96.2346 51.5392,93.9013 50.5,91.5C 49.9664,86.0993 51.133,81.0993 54,76.5C 54.2321,77.7375 54.7321,78.7375 55.5,79.5 Z"/></g>
<g><path style="opacity:1" fill="#d3d6e2" d="M 305.5,89.5 C 306.833,108.322 307.5,127.488 307.5,147C 307.5,166.336 307.167,185.503 306.5,204.5C 306.827,166.094 306.494,127.761 305.5,89.5 Z"/></g>
<g><path style="opacity:1" fill="#1d437b" d="M 69.5,93.5 C 67.1348,95.8603 64.4681,97.8603 61.5,99.5C 60.5811,96.3738 61.0811,93.3738 63,90.5C 65.0396,88.6298 66.8729,86.6298 68.5,84.5C 70.258,84.1231 71.9246,83.4565 73.5,82.5C 73.0421,86.187 71.7087,89.8536 69.5,93.5 Z"/></g>
<g><path style="opacity:1" fill="#1e4279" d="M 321.5,83.5 C 323.481,85.3031 325.648,86.9697 328,88.5C 330.437,91.938 331.27,95.6047 330.5,99.5C 327.87,98.1963 325.537,96.5296 323.5,94.5C 321.505,90.864 319.505,87.1973 317.5,83.5C 318.7,82.7084 320.033,82.7084 321.5,83.5 Z"/></g>
<g><path style="opacity:1" fill="#1c417b" d="M 47.5,92.5 C 50.3059,97.4531 51.9725,102.786 52.5,108.5C 52.4609,110.952 51.7943,112.952 50.5,114.5C 45.7566,107.941 44.2566,100.607 46,92.5C 46.69,91.2617 47.19,91.2617 47.5,92.5 Z"/></g>
<g><path style="opacity:1" fill="#21457d" d="M 346.5,106.5 C 340.305,117.388 338.138,116.055 340,102.5C 341.513,99.4734 343.013,96.4734 344.5,93.5C 344.369,92.6236 344.702,91.9569 345.5,91.5C 347.629,96.3942 347.962,101.394 346.5,106.5 Z"/></g>
<g><path style="opacity:1" fill="#1e437a" d="M 323.5,96.5 C 326.438,98.934 329.271,101.601 332,104.5C 334.006,107.536 334.84,110.869 334.5,114.5C 333.448,114.649 332.448,114.483 331.5,114C 329.63,111.96 327.63,110.127 325.5,108.5C 323.912,104.157 321.912,99.9905 319.5,96C 320.819,95.805 322.153,95.9717 323.5,96.5 Z"/></g>
<g><path style="opacity:1" fill="#1c427a" d="M 70.5,95.5 C 71.2389,95.369 71.9056,95.5357 72.5,96C 70.0716,100.021 68.0716,104.188 66.5,108.5C 64.2597,110.966 61.593,112.966 58.5,114.5C 58.1667,114 57.8333,113.5 57.5,113C 58.9703,105.031 63.3036,99.1977 70.5,95.5 Z"/></g>
<g><path style="opacity:1" fill="#1b4279" d="M 351.5,120.5 C 349.93,125.275 347.097,129.275 343,132.5C 341.119,127.747 341.453,123.08 344,118.5C 345.723,116.283 347.223,113.95 348.5,111.5C 349.504,110.317 350.338,108.984 351,107.5C 351.499,111.821 351.666,116.154 351.5,120.5 Z"/></g>
<g><path style="opacity:1" fill="#1b447a" d="M 324.5,110.5 C 329.6,114.102 333.433,118.769 336,124.5C 336.814,126.902 336.647,129.235 335.5,131.5C 332.17,129.831 329.503,127.498 327.5,124.5C 326.608,120.211 325.275,116.044 323.5,112C 323.57,111.235 323.903,110.735 324.5,110.5 Z"/></g>
<g><path style="opacity:1" fill="#1e447a" d="M 40.5,107.5 C 46.0719,113.145 49.4052,119.979 50.5,128C 50.5463,129.728 50.0463,131.228 49,132.5C 41.7288,125.778 38.8954,117.444 40.5,107.5 Z"/></g>
<g><path style="opacity:1" fill="#e7edef" d="M 325.5,81.5 C 327.156,83.4602 328.823,85.4602 330.5,87.5C 329.933,88.4202 330.599,88.7535 332.5,88.5C 333.172,92.1883 334.005,95.8549 335,99.5C 335.49,98.2068 335.657,96.8734 335.5,95.5C 336.315,96.4293 337.148,97.4293 338,98.5C 339.276,96.1417 340.442,93.8084 341.5,91.5C 342.772,91.0424 343.772,91.7091 344.5,93.5C 343.013,96.4734 341.513,99.4734 340,102.5C 338.138,116.055 340.305,117.388 346.5,106.5C 346.077,108.781 346.744,110.448 348.5,111.5C 347.223,113.95 345.723,116.283 344,118.5C 341.453,123.08 341.119,127.747 343,132.5C 347.097,129.275 349.93,125.275 351.5,120.5C 351.803,124.262 352.803,127.762 354.5,131C 354.492,132.707 354.158,134.207 353.5,135.5C 353.664,132.813 353.497,130.146 353,127.5C 345.795,133.233 342.461,140.566 343,149.5C 343.671,148.748 344.504,148.414 345.5,148.5C 344.047,149.825 344.381,150.658 346.5,151C 345.226,151.977 345.226,152.811 346.5,153.5C 344.495,156.351 342.662,159.351 341,162.5C 340.202,164.259 340.369,165.926 341.5,167.5C 345.405,165.92 348.738,163.586 351.5,160.5C 352.325,162.308 353.325,164.141 354.5,166C 354.43,166.765 354.097,167.265 353.5,167.5C 353.631,166.761 353.464,166.094 353,165.5C 347.238,169.759 342.405,174.759 338.5,180.5C 338.869,178.007 338.203,177.34 336.5,178.5C 340.188,160.301 341.188,141.968 339.5,123.5C 338.579,115.728 337.079,108.062 335,100.5C 335.996,109.283 337.163,117.95 338.5,126.5C 338.825,134.019 338.492,141.352 337.5,148.5C 337.666,143.156 337.499,137.823 337,132.5C 336.392,134.154 335.892,135.821 335.5,137.5C 334.288,135.093 332.788,132.76 331,130.5C 328.672,129.336 326.838,127.67 325.5,125.5C 326.167,125.167 326.833,124.833 327.5,124.5C 329.503,127.498 332.17,129.831 335.5,131.5C 336.647,129.235 336.814,126.902 336,124.5C 333.433,118.769 329.6,114.102 324.5,110.5C 325.338,110.158 325.672,109.492 325.5,108.5C 327.63,110.127 329.63,111.96 331.5,114C 332.448,114.483 333.448,114.649 334.5,114.5C 334.84,110.869 334.006,107.536 332,104.5C 329.271,101.601 326.438,98.934 323.5,96.5C 323.5,95.8333 323.5,95.1667 323.5,94.5C 325.537,96.5296 327.87,98.1963 330.5,99.5C 331.27,95.6047 330.437,91.938 328,88.5C 325.648,86.9697 323.481,85.3031 321.5,83.5C 323.38,83.7709 324.713,83.1042 325.5,81.5 Z"/></g>
<g><path style="opacity:1" fill="#5c6e89" d="M 339.5,123.5 C 338.596,124.209 338.263,125.209 338.5,126.5C 337.163,117.95 335.996,109.283 335,100.5C 337.079,108.062 338.579,115.728 339.5,123.5 Z"/></g>
<g><path style="opacity:1" fill="#20447c" d="M 38.5,127.5 C 45.9792,133.124 49.6459,140.458 49.5,149.5C 41.0736,144.648 37.407,137.314 38.5,127.5 Z"/></g>
<g><path style="opacity:1" fill="#1c447a" d="M 353.5,135.5 C 352.098,140.642 349.431,144.975 345.5,148.5C 344.504,148.414 343.671,148.748 343,149.5C 342.461,140.566 345.795,133.233 353,127.5C 353.497,130.146 353.664,132.813 353.5,135.5 Z"/></g>
<g><path style="opacity:1" fill="#1e447b" d="M 35.5,145.5 C 42.2199,149.721 47.3865,155.388 51,162.5C 51.7975,164.259 51.6309,165.926 50.5,167.5C 41.0409,163.26 36.0409,155.926 35.5,145.5 Z"/></g>
<g><path style="opacity:1" fill="#1e447b" d="M 351.5,160.5 C 348.738,163.586 345.405,165.92 341.5,167.5C 340.369,165.926 340.202,164.259 341,162.5C 342.662,159.351 344.495,156.351 346.5,153.5C 350.086,151.42 353.253,148.754 356,145.5C 355.699,150.792 354.199,155.792 351.5,160.5 Z"/></g>
<g><path style="opacity:1" fill="#e6ecee" d="M 60.5,86.5 C 63.1149,85.5501 65.1149,83.8835 66.5,81.5C 66.427,83.0269 67.0937,84.0269 68.5,84.5C 66.8729,86.6298 65.0396,88.6298 63,90.5C 61.0811,93.3738 60.5811,96.3738 61.5,99.5C 64.4681,97.8603 67.1348,95.8603 69.5,93.5C 69.3284,94.4916 69.6618,95.1583 70.5,95.5C 63.3036,99.1977 58.9703,105.031 57.5,113C 57.8333,113.5 58.1667,114 58.5,114.5C 61.593,112.966 64.2597,110.966 66.5,108.5C 66.8807,109.931 67.8807,110.764 69.5,111C 69.2716,111.399 68.9382,111.565 68.5,111.5C 59.3257,115.197 55.3257,121.863 56.5,131.5C 59.4933,130.167 61.8266,128.167 63.5,125.5C 64.1667,125.833 64.8333,126.167 65.5,126.5C 61.3919,130.114 58.2253,134.447 56,139.5C 55.1764,142.882 55.343,146.216 56.5,149.5C 60.3002,147.037 62.9668,143.704 64.5,139.5C 65.1174,139.389 65.6174,139.056 66,138.5C 68.3322,142.09 68.8322,145.757 67.5,149.5C 67.7989,147.396 67.4656,145.396 66.5,143.5C 58.7462,149.846 56.2462,157.846 59,167.5C 62.8032,164.209 65.3032,160.209 66.5,155.5C 66.2322,157.099 66.5655,158.432 67.5,159.5C 67.56,158.957 67.8933,158.624 68.5,158.5C 69.1668,164.988 69.8334,171.321 70.5,177.5C 66.1347,185.352 65.4681,193.519 68.5,202C 68.1667,202.5 67.8333,203 67.5,203.5C 54.1486,172.859 50.4819,141.026 56.5,108C 56.0556,106.238 55.5556,106.405 55,108.5C 54.3855,113.015 53.5522,117.348 52.5,121.5C 52.8151,118.789 52.1484,116.456 50.5,114.5C 51.7943,112.952 52.4609,110.952 52.5,108.5C 51.9725,102.786 50.3059,97.4531 47.5,92.5C 48.791,92.7373 49.791,92.404 50.5,91.5C 51.5392,93.9013 52.8726,96.2346 54.5,98.5C 54.8333,97.8333 55.1667,97.1667 55.5,96.5C 56.422,90.855 56.422,85.1883 55.5,79.5C 55.3932,77.6214 55.8932,77.2881 57,78.5C 58.7197,80.3409 59.8864,83.0076 60.5,86.5 Z"/></g>
<g><path style="opacity:1" fill="#1d437b" d="M 353.5,167.5 C 351.876,176.462 346.876,182.795 338.5,186.5C 337.306,184.484 337.306,182.484 338.5,180.5C 342.405,174.759 347.238,169.759 353,165.5C 353.464,166.094 353.631,166.761 353.5,167.5 Z"/></g>
<g><path style="opacity:1" fill="#1d447b" d="M 38.5,165.5 C 43.4775,168.978 47.9775,172.978 52,177.5C 54.2577,180.278 54.7577,183.278 53.5,186.5C 44.2156,182.55 39.2156,175.55 38.5,165.5 Z"/></g>
<g><path style="opacity:1" fill="#1a4279" d="M 305.5,89.5 C 306.494,127.761 306.827,166.094 306.5,204.5C 306.5,205.5 306.5,206.5 306.5,207.5C 307.822,207.67 308.989,207.337 310,206.5C 310.268,201.35 311.268,196.35 313,191.5C 315.602,195.474 317.102,199.807 317.5,204.5C 319.103,204.688 320.437,204.188 321.5,203C 316.668,194.154 316.168,184.988 320,175.5C 325.674,184.26 327.008,193.594 324,203.5C 326.413,200.938 328.08,197.938 329,194.5C 334.439,179.662 337.272,164.329 337.5,148.5C 338.492,141.352 338.825,134.019 338.5,126.5C 338.263,125.209 338.596,124.209 339.5,123.5C 341.188,141.968 340.188,160.301 336.5,178.5C 335.013,185.463 333.013,192.296 330.5,199C 330.833,199.5 331.167,200 331.5,200.5C 336.763,194.443 342.93,189.443 350,185.5C 349.903,188.296 349.07,190.963 347.5,193.5C 348,193.833 348.5,194.167 349,194.5C 352.021,192.993 355.188,191.993 358.5,191.5C 355.639,200.246 352.473,208.913 349,217.5C 348.333,219.167 348.333,220.833 349,222.5C 358.211,226.521 367.378,230.688 376.5,235C 360.683,242.107 344.349,247.94 327.5,252.5C 326.504,258.798 326.17,265.132 326.5,271.5C 311.099,274.356 295.766,277.523 280.5,281C 270.756,291.033 259.756,299.367 247.5,306C 230.422,313.62 213.256,321.12 196,328.5C 178.744,321.12 161.578,313.62 144.5,306C 132.244,299.367 121.244,291.033 111.5,281C 95.7014,278.407 80.0347,275.24 64.5,271.5C 64.8297,265.132 64.4963,258.798 63.5,252.5C 46.6802,248.212 30.3469,242.546 14.5,235.5C 23.3472,230.91 32.3472,226.577 41.5,222.5C 41.8333,221.833 42.1667,221.167 42.5,220.5C 39.1607,210.815 35.8273,201.148 32.5,191.5C 36.7188,193.287 41.0521,194.454 45.5,195C 43.5159,191.896 42.5159,188.729 42.5,185.5C 49.5131,189.504 55.5131,194.671 60.5,201C 61.3317,201.688 61.9984,201.521 62.5,200.5C 53.0657,174.972 49.7324,148.638 52.5,121.5C 53.5522,117.348 54.3855,113.015 55,108.5C 55.5556,106.405 56.0556,106.238 56.5,108C 50.4819,141.026 54.1486,172.859 67.5,203.5C 67.8333,203 68.1667,202.5 68.5,202C 65.4681,193.519 66.1347,185.352 70.5,177.5C 71.1515,176.909 71.8182,176.243 72.5,175.5C 75.7423,185.159 75.0756,194.492 70.5,203.5C 71.6888,204.429 73.0222,204.762 74.5,204.5C 74.8979,199.807 76.3979,195.474 79,191.5C 80.8931,196.678 82.0598,202.012 82.5,207.5C 83.5,207.5 84.5,207.5 85.5,207.5C 85.5,168.167 85.5,128.833 85.5,89.5C 125.304,86.3466 162.137,74.3466 196,53.5C 229.597,74.2089 266.097,86.2089 305.5,89.5 Z"/></g>
<g><path style="opacity:1" fill="#5e7990" d="M 70.5,222.5 C 68.5163,237.129 67.8497,252.129 68.5,267.5C 67.5038,252.342 67.1705,237.009 67.5,221.5C 68.791,221.263 69.791,221.596 70.5,222.5 Z"/></g>
<g><path style="opacity:1" fill="#f6f8f9" d="M 70.5,222.5 C 131.303,238.605 192.97,242.771 255.5,235C 278.061,231.907 300.394,227.74 322.5,222.5C 322.5,237.833 322.5,253.167 322.5,268.5C 244.847,286.689 166.847,288.189 88.5,273C 81.6279,271.452 74.9613,269.618 68.5,267.5C 67.8497,252.129 68.5163,237.129 70.5,222.5 Z"/></g>
<g><path style="opacity:1" fill="#26457d" d="M 184.5,249.5 C 183.521,252.625 183.187,255.958 183.5,259.5C 186.385,259.806 189.052,259.473 191.5,258.5C 192.151,257.909 192.818,257.243 193.5,256.5C 194.833,259.167 194.833,261.833 193.5,264.5C 192.614,263.675 192.281,262.675 192.5,261.5C 189.5,261.5 186.5,261.5 183.5,261.5C 183.216,264.777 183.549,267.943 184.5,271C 188.909,272.262 192.743,271.428 196,268.5C 196.494,270.134 196.66,271.801 196.5,273.5C 189.137,273.831 181.803,273.497 174.5,272.5C 175.689,271.571 177.022,271.238 178.5,271.5C 178.666,264.159 178.5,256.826 178,249.5C 177.25,248.874 176.416,248.374 175.5,248C 182.158,247.5 188.825,247.334 195.5,247.5C 195.657,248.873 195.49,250.207 195,251.5C 194.5,251 194,250.5 193.5,250C 190.518,249.502 187.518,249.335 184.5,249.5 Z"/></g>
<g><path style="opacity:1" fill="#1c4178" d="M 207.5,248.5 C 207.5,252.5 207.5,256.5 207.5,260.5C 214.329,261.172 217.163,258.172 216,251.5C 215.578,249.574 214.411,248.574 212.5,248.5C 213.919,247.549 215.585,247.216 217.5,247.5C 221.252,249.749 222.419,253.082 221,257.5C 219.786,259.049 218.286,260.215 216.5,261C 218.981,265.981 222.648,269.814 227.5,272.5C 224.894,273.652 222.227,273.818 219.5,273C 216.112,270.214 213.446,266.881 211.5,263C 210.207,262.51 208.873,262.343 207.5,262.5C 207.336,265.187 207.503,267.854 208,270.5C 208.903,271.701 210.069,272.535 211.5,273C 207.5,273.667 203.5,273.667 199.5,273C 200.942,272.623 201.942,271.79 202.5,270.5C 203.821,267.402 204.488,263.902 204.5,260C 204.467,256.115 204.133,252.281 203.5,248.5C 204.958,247.218 206.292,247.218 207.5,248.5 Z"/></g>
<g><path style="opacity:1" fill="#22437a" d="M 147.5,246.5 C 151.408,245.202 155.408,245.368 159.5,247C 158.552,247.483 157.552,247.649 156.5,247.5C 157.418,253.423 159.252,259.09 162,264.5C 164.561,259.875 166.728,255.041 168.5,250C 167.728,248.779 166.728,247.779 165.5,247C 168.706,246.11 171.706,246.443 174.5,248C 172.479,248.513 170.979,249.68 170,251.5C 167.2,258.759 164.7,266.093 162.5,273.5C 161.5,273.5 160.5,273.5 159.5,273.5C 157.109,266.497 154.609,259.497 152,252.5C 151.208,249.894 149.708,247.894 147.5,246.5 Z"/></g>
<g><path style="opacity:1" fill="#1d4076" d="M 284.5,239.5 C 285.725,240.152 286.392,241.319 286.5,243C 286.406,247.457 285.739,247.457 284.5,243C 282.19,242.503 279.857,242.337 277.5,242.5C 277.5,250.167 277.5,257.833 277.5,265.5C 282.306,265.951 282.472,266.618 278,267.5C 274.845,268.278 271.678,268.445 268.5,268C 269.931,267.535 271.097,266.701 272,265.5C 272.5,258.174 272.666,250.841 272.5,243.5C 270.146,243.838 267.813,244.338 265.5,245C 264.89,246.947 264.057,248.781 263,250.5C 262.503,247.854 262.336,245.187 262.5,242.5C 270.042,242.041 277.375,241.041 284.5,239.5 Z"/></g>
<g><path style="opacity:1" fill="#2a4b80" d="M 104.5,239.5 C 106.746,240.21 109.08,240.71 111.5,241C 116.333,247.167 121.167,253.333 126,259.5C 126.829,254.467 126.662,249.467 125.5,244.5C 124.692,244.192 124.025,243.692 123.5,243C 126.602,242.652 129.602,243.152 132.5,244.5C 131.675,245.386 130.675,245.719 129.5,245.5C 129.5,253.5 129.5,261.5 129.5,269.5C 128.178,269.67 127.011,269.337 126,268.5C 120.667,261.167 115.333,253.833 110,246.5C 109.333,252.5 109.333,258.5 110,264.5C 110.925,265.047 111.758,265.713 112.5,266.5C 109.756,267.491 107.089,267.157 104.5,265.5C 105.325,264.614 106.325,264.281 107.5,264.5C 107.666,257.159 107.5,249.826 107,242.5C 105.583,241.922 104.75,240.922 104.5,239.5 Z"/></g>
<g><path style="opacity:1" fill="#9eaecc" d="M 184.5,249.5 C 184.5,252.5 184.5,255.5 184.5,258.5C 186.833,258.5 189.167,258.5 191.5,258.5C 189.052,259.473 186.385,259.806 183.5,259.5C 183.187,255.958 183.521,252.625 184.5,249.5 Z"/></g>
<g><path style="opacity:1" fill="#294f74" d="M 217.5,247.5 C 215.585,247.216 213.919,247.549 212.5,248.5C 210.833,248.5 209.167,248.5 207.5,248.5C 206.292,247.218 204.958,247.218 203.5,248.5C 204.133,252.281 204.467,256.115 204.5,260C 204.488,263.902 203.821,267.402 202.5,270.5C 202.5,263.5 202.5,256.5 202.5,249.5C 201.022,249.762 199.689,249.429 198.5,248.5C 198.709,247.914 199.043,247.414 199.5,247C 205.681,246.181 211.681,246.347 217.5,247.5 Z"/></g>
<g><path style="opacity:1" fill="#1e4179" d="M 233.5,245.5 C 237.167,245.5 240.833,245.5 244.5,245.5C 244.662,247.527 244.495,249.527 244,251.5C 242.855,248.523 240.688,246.856 237.5,246.5C 233.278,247.661 232.612,249.828 235.5,253C 238.927,254.796 242.094,256.963 245,259.5C 246.536,270.453 241.703,274.787 230.5,272.5C 228.505,264.988 229.505,264.155 233.5,270C 242.316,270.419 243.649,267.419 237.5,261C 228.615,257.448 227.281,252.281 233.5,245.5 Z"/></g>
<g><path style="opacity:1" fill="#234378" d="M 134.5,245.5 C 138.019,244.192 141.685,244.192 145.5,245.5C 144.758,246.287 143.925,246.953 143,247.5C 142.5,254.826 142.334,262.159 142.5,269.5C 146.444,270.274 146.277,270.941 142,271.5C 139.347,271.379 136.847,270.712 134.5,269.5C 135.242,268.713 136.075,268.047 137,267.5C 137.667,260.5 137.667,253.5 137,246.5C 136.329,245.748 135.496,245.414 134.5,245.5 Z"/></g>
<g><path style="opacity:1" fill="#25467a" d="M 308.5,234.5 C 310.527,234.338 312.527,234.505 314.5,235C 307.943,242.274 304.943,250.774 305.5,260.5C 308.598,260.413 308.932,260.913 306.5,262C 303.199,262.997 299.866,263.33 296.5,263C 297.931,262.535 299.097,261.701 300,260.5C 300.667,257.833 300.667,255.167 300,252.5C 297.002,247.34 293.168,243.007 288.5,239.5C 292.399,238.016 296.399,237.516 300.5,238C 299.572,238.388 298.905,239.055 298.5,240C 299.924,243.092 301.757,245.926 304,248.5C 306.087,245.327 307.921,241.994 309.5,238.5C 307.824,237.272 307.491,235.939 308.5,234.5 Z"/></g>
<g><path style="opacity:1" fill="#eef1f0" d="M 207.5,248.5 C 209.167,248.5 210.833,248.5 212.5,248.5C 214.411,248.574 215.578,249.574 216,251.5C 217.163,258.172 214.329,261.172 207.5,260.5C 207.5,256.5 207.5,252.5 207.5,248.5 Z"/></g>
<g><path style="opacity:1" fill="#2c4a7f" d="M 252.5,243.5 C 255.187,243.336 257.854,243.503 260.5,244C 259.584,244.374 258.75,244.874 258,245.5C 257.5,253.159 257.334,260.826 257.5,268.5C 258.675,268.281 259.675,268.614 260.5,269.5C 256.878,270.659 253.211,270.825 249.5,270C 250.333,269.167 251.167,268.333 252,267.5C 252.667,260.833 252.667,254.167 252,247.5C 251.167,246.667 250.333,245.833 249.5,245C 250.737,244.768 251.737,244.268 252.5,243.5 Z"/></g>
<g><path style="opacity:1" fill="#1f4176" d="M 75.5,233.5 C 79.1052,234.604 82.7718,235.604 86.5,236.5C 85.675,237.386 84.675,237.719 83.5,237.5C 83.3338,243.842 83.5005,250.175 84,256.5C 86.2258,260.861 89.7258,262.361 94.5,261C 95.7014,260.097 96.5348,258.931 97,257.5C 97.6667,252.167 97.6667,246.833 97,241.5C 96.1004,240.23 94.9337,239.23 93.5,238.5C 96.8944,237.777 100.228,238.277 103.5,240C 102.234,240.309 101.067,240.809 100,241.5C 99.6667,246.833 99.3333,252.167 99,257.5C 97.8239,263.341 94.3239,265.507 88.5,264C 84.7778,262.9 81.9445,260.734 80,257.5C 78.7811,250.579 78.1145,243.579 78,236.5C 76.583,235.922 75.7496,234.922 75.5,233.5 Z"/></g>
<g><path style="opacity:1" fill="#f5bd32" d="M 217.5,233.5 C 214.167,233.5 210.833,233.5 207.5,233.5C 207.325,231.379 207.659,229.379 208.5,227.5C 227.658,220.507 246.658,221.007 265.5,229C 259.987,230.725 254.32,231.725 248.5,232C 238.178,232.791 227.845,233.291 217.5,233.5 Z"/></g>
<g><path style="opacity:1" fill="#d5dde3" d="M 274.5,131.5 C 275.167,131.5 275.5,131.833 275.5,132.5C 275.5,163.167 275.5,193.833 275.5,224.5C 274.448,224.351 273.448,224.517 272.5,225C 274.134,225.494 275.801,225.66 277.5,225.5C 277.169,194.995 277.502,164.662 278.5,134.5C 278.5,134.833 278.5,135.167 278.5,135.5C 278.667,166.168 278.5,196.835 278,227.5C 276.612,228.554 275.112,228.72 273.5,228C 258.272,217.598 241.605,214.598 223.5,219C 218.367,220.543 213.367,222.377 208.5,224.5C 208.232,222.901 208.566,221.568 209.5,220.5C 209.369,221.239 209.536,221.906 210,222.5C 231.578,210.219 252.911,210.552 274,223.5C 274.5,192.835 274.667,162.168 274.5,131.5 Z"/></g>
<g><path style="opacity:1" fill="#f1f3f5" d="M 305.5,213.5 C 309.667,214.778 313.667,216.444 317.5,218.5C 313.814,220.728 309.814,221.728 305.5,221.5C 305.5,218.833 305.5,216.167 305.5,213.5 Z"/></g>
<g><path style="opacity:1" fill="#eaf1f1" d="M 83.5,213.5 C 85.369,215.635 86.0356,218.302 85.5,221.5C 80.6289,221.449 75.9622,220.449 71.5,218.5C 75.7571,217.2 79.7571,215.533 83.5,213.5 Z"/></g>
<g><path style="opacity:1" fill="#ecf1f2" d="M 350.5,197.5 C 351.376,197.369 352.043,197.702 352.5,198.5C 348.89,206.721 345.557,215.054 342.5,223.5C 350.482,227.435 358.482,231.268 366.5,235C 353.496,240.419 340.162,244.919 326.5,248.5C 326.33,247.178 326.663,246.011 327.5,245C 333.833,242.667 340.167,240.333 346.5,238C 340.275,238.511 334.108,239.678 328,241.5C 326.392,241.026 326.226,240.359 327.5,239.5C 346.199,233.062 345.866,232.062 326.5,236.5C 326.281,235.325 326.614,234.325 327.5,233.5C 330.539,232.431 333.539,231.265 336.5,230C 333.454,230.314 330.454,230.147 327.5,229.5C 329.153,227.879 331.153,226.712 333.5,226C 331.527,225.505 329.527,225.338 327.5,225.5C 327.33,224.178 327.663,223.011 328.5,222C 331.56,221.152 334.56,220.152 337.5,219C 333.804,219.003 330.137,219.503 326.5,220.5C 326.33,219.178 326.663,218.011 327.5,217C 331.5,215.667 335.5,214.333 339.5,213C 315.983,216.72 315.649,215.053 338.5,208C 332.477,208.528 326.477,209.528 320.5,211C 317.167,211.667 313.833,211.667 310.5,211C 324.254,207.36 337.587,202.86 350.5,197.5 Z"/></g>
<g><path style="opacity:1" fill="#edf1f2" d="M 38.5,197.5 C 51.924,202.697 65.5907,207.197 79.5,211C 76.5,211.667 73.5,211.667 70.5,211C 63.7423,209.639 57.0756,208.306 50.5,207C 56.287,209.652 62.287,211.819 68.5,213.5C 68.8333,213.833 69.1667,214.167 69.5,214.5C 68.3333,214.833 67.1667,215.167 66,215.5C 61.1422,214.405 56.3089,213.572 51.5,213C 55.5,214.333 59.5,215.667 63.5,217C 64.3366,218.011 64.67,219.178 64.5,220.5C 60.8631,219.503 57.1964,219.003 53.5,219C 56.8993,220.177 60.2326,221.344 63.5,222.5C 63.5,223.5 63.5,224.5 63.5,225.5C 61.4727,225.338 59.4727,225.505 57.5,226C 59.8474,226.712 61.8474,227.879 63.5,229.5C 60.5182,230.332 57.5182,230.499 54.5,230C 57.7556,231.474 61.089,232.64 64.5,233.5C 64.5,234.5 64.5,235.5 64.5,236.5C 45.0587,232.087 44.7253,233.087 63.5,239.5C 64.7742,240.359 64.6075,241.026 63,241.5C 56.5148,239.916 50.0148,238.75 43.5,238C 50.1551,240.332 56.8218,242.665 63.5,245C 64.3366,246.011 64.67,247.178 64.5,248.5C 50.7717,245.091 37.4384,240.591 24.5,235C 31.7904,231.404 39.1237,227.904 46.5,224.5C 46.8333,223.833 47.1667,223.167 47.5,222.5C 44.768,214.043 41.768,205.709 38.5,197.5 Z"/></g>
<g><path style="opacity:1" fill="#183f78" d="M 323.5,159.5 C 330.561,166.904 332.395,175.571 329,185.5C 326.319,183.473 324.653,180.807 324,177.5C 323.501,171.509 323.334,165.509 323.5,159.5 Z"/></g>
<g><path style="opacity:1" fill="#184278" d="M 67.5,159.5 C 68.6525,165.319 68.8192,171.319 68,177.5C 67.4954,180.517 65.9954,182.851 63.5,184.5C 59.9356,175.36 61.269,167.027 67.5,159.5 Z"/></g>
<g><path style="opacity:1" fill="#1d437b" d="M 67.5,149.5 C 66.6586,151.379 66.3253,153.379 66.5,155.5C 65.3032,160.209 62.8032,164.209 59,167.5C 56.2462,157.846 58.7462,149.846 66.5,143.5C 67.4656,145.396 67.7989,147.396 67.5,149.5 Z"/></g>
<g><path style="opacity:1" fill="#1d437b" d="M 324.5,142.5 C 332.242,148.217 335.409,155.883 334,165.5C 333.586,165.957 333.086,166.291 332.5,166.5C 328.911,163.729 326.744,160.062 326,155.5C 325.417,151.168 324.917,146.835 324.5,142.5 Z"/></g>
<g><path style="opacity:1" fill="#bfa03e" d="M 282.5,138.5 C 282.836,167.681 283.836,196.681 285.5,225.5C 284.791,226.404 283.791,226.737 282.5,226.5C 282.5,197.167 282.5,167.833 282.5,138.5 Z"/></g>
<g><path style="opacity:1" fill="#bdc5d2" d="M 115.5,132.5 C 114.515,164.123 114.181,195.79 114.5,227.5C 115.833,227.5 117.167,227.5 118.5,227.5C 117.081,228.451 115.415,228.784 113.5,228.5C 113.333,196.832 113.5,165.165 114,133.5C 114.383,132.944 114.883,132.611 115.5,132.5 Z"/></g>
<g><path style="opacity:1" fill="#21467d" d="M 325.5,125.5 C 326.838,127.67 328.672,129.336 331,130.5C 332.788,132.76 334.288,135.093 335.5,137.5C 336.698,141.488 336.698,145.488 335.5,149.5C 333.517,148.018 331.684,146.351 330,144.5C 327.252,138.171 325.752,131.838 325.5,125.5 Z"/></g>
<g><path style="opacity:1" fill="#27477c" d="M 64.5,139.5 C 62.9668,143.704 60.3002,147.037 56.5,149.5C 55.343,146.216 55.1764,142.882 56,139.5C 58.2253,134.447 61.3919,130.114 65.5,126.5C 66.6499,125.15 67.3166,125.316 67.5,127C 66.1246,131.092 65.1246,135.259 64.5,139.5 Z"/></g>
<g><path style="opacity:1" fill="#f4f5f5" d="M 195.5,75.5 C 196.804,80.5663 198.637,85.5663 201,90.5C 206.968,97.4692 213.301,104.136 220,110.5C 222.308,113.923 224.142,117.589 225.5,121.5C 239.152,118.262 252.486,119.095 265.5,124C 268.106,124.792 270.106,126.292 271.5,128.5C 271.833,157.841 271.5,187.174 270.5,216.5C 255.752,209.132 240.419,207.632 224.5,212C 219.478,213.847 214.478,215.681 209.5,217.5C 209.5,218.5 209.5,219.5 209.5,220.5C 208.566,221.568 208.232,222.901 208.5,224.5C 208.5,225.5 208.5,226.5 208.5,227.5C 207.659,229.379 207.325,231.379 207.5,233.5C 210.833,233.5 214.167,233.5 217.5,233.5C 213.03,234.486 208.363,234.819 203.5,234.5C 206.039,217.141 208.705,199.808 211.5,182.5C 212.404,181.791 212.737,180.791 212.5,179.5C 201.5,179.5 190.5,179.5 179.5,179.5C 179.263,180.791 179.596,181.791 180.5,182.5C 183.446,199.79 186.113,217.123 188.5,234.5C 187.167,234.5 185.833,234.5 184.5,234.5C 184.406,230.864 183.739,227.364 182.5,224C 160.413,213.144 139.08,214.311 118.5,227.5C 117.167,227.5 115.833,227.5 114.5,227.5C 114.181,195.79 114.515,164.123 115.5,132.5C 116.167,162.833 116.833,193.167 117.5,223.5C 138.714,210.536 160.214,210.203 182,222.5C 182.961,218.774 181.461,216.608 177.5,216C 158.776,207.331 140.276,207.497 122,216.5C 121.333,186.5 121.333,156.5 122,126.5C 133.292,119.858 145.459,117.691 158.5,120C 161.549,121.057 164.549,121.224 167.5,120.5C 169.079,117.006 170.913,113.673 173,110.5C 178.138,105.541 182.805,100.208 187,94.5C 187.139,86.8939 189.972,80.5605 195.5,75.5 Z"/></g>
<g><path style="opacity:1" fill="#8899b5" d="M 191.5,215.5 C 192.651,220.65 192.817,225.984 192,231.5C 191.452,227.83 190.952,224.163 190.5,220.5C 191.451,219.081 191.784,217.415 191.5,215.5 Z"/></g>
<g><path style="opacity:1" fill="#c2ccd9" d="M 202.5,187.5 C 203.5,187.5 204.5,187.5 205.5,187.5C 203.777,201.505 201.944,215.505 200,229.5C 199.958,215.412 200.791,201.412 202.5,187.5 Z"/></g>
<g><path style="opacity:1" fill="#d3d8e3" d="M 194.5,184.5 C 195.5,184.5 196.5,184.5 197.5,184.5C 197.624,201.185 197.124,217.852 196,234.5C 194.786,217.855 194.286,201.189 194.5,184.5 Z"/></g>
<g><path style="opacity:1" fill="#1c437b" d="M 68.5,111.5 C 67.2259,116.323 65.5592,120.99 63.5,125.5C 61.8266,128.167 59.4933,130.167 56.5,131.5C 55.3257,121.863 59.3257,115.197 68.5,111.5 Z"/></g>
<g><path style="opacity:1" fill="#ccd8eb" d="M 101.5,96.5 C 99.3926,97.4682 97.0593,97.8016 94.5,97.5C 94.5,134.833 94.5,172.167 94.5,209.5C 93.5015,172.004 93.1682,134.337 93.5,96.5C 96.1667,96.5 98.8333,96.5 101.5,96.5 Z"/></g>
<g><path style="opacity:1" fill="#f4f7f7" d="M 291.5,225.5 C 292.884,218.615 293.55,211.615 293.5,204.5C 294.498,170.004 294.832,135.337 294.5,100.5C 292.833,100.5 291.167,100.5 289.5,100.5C 256.284,95.6333 225.118,84.9666 196,68.5C 195.601,68.7284 195.435,69.0618 195.5,69.5C 165.851,85.3353 134.517,96.002 101.5,101.5C 100.5,101.5 99.5,101.5 98.5,101.5C 98.5,135.5 98.5,169.5 98.5,203.5C 99.2174,210.826 99.8841,218.159 100.5,225.5C 98.8561,225.714 97.3561,225.38 96,224.5C 94.7497,219.58 94.2497,214.58 94.5,209.5C 94.5,172.167 94.5,134.833 94.5,97.5C 97.0593,97.8016 99.3926,97.4682 101.5,96.5C 134.82,91.003 166.32,80.003 196,63.5C 227.744,82.0258 261.911,93.0258 298.5,96.5C 298.667,134.501 298.5,172.501 298,210.5C 297.739,214.706 297.239,218.873 296.5,223C 295.381,224.876 293.714,225.709 291.5,225.5 Z"/></g>
<g><path style="opacity:1" fill="#1c3d76" d="M 271.5,128.5 C 273.5,128.5 274.5,129.5 274.5,131.5C 274.667,162.168 274.5,192.835 274,223.5C 252.911,210.552 231.578,210.219 210,222.5C 209.536,221.906 209.369,221.239 209.5,220.5C 209.5,219.5 209.5,218.5 209.5,217.5C 214.478,215.681 219.478,213.847 224.5,212C 240.419,207.632 255.752,209.132 270.5,216.5C 271.5,187.174 271.833,157.841 271.5,128.5 Z"/></g>
<g><path style="opacity:1" fill="#324a7e" d="M 234.5,196.5 C 244.895,196.01 254.895,197.677 264.5,201.5C 264,201.833 263.5,202.167 263,202.5C 245.619,196.347 228.785,197.681 212.5,206.5C 211.429,204.675 212.096,203.508 214.5,203C 221.184,200.504 227.851,198.337 234.5,196.5 Z"/></g>
<g><path style="opacity:1" fill="#324a7c" d="M 143.5,196.5 C 156.733,196.077 169.066,199.077 180.5,205.5C 180.167,205.833 179.833,206.167 179.5,206.5C 163.181,197.858 146.348,196.525 129,202.5C 127.189,201.576 127.355,200.743 129.5,200C 134.317,198.929 138.984,197.763 143.5,196.5 Z"/></g>
<g><path style="opacity:1" fill="#dde5ea" d="M 191.5,215.5 C 191.784,217.415 191.451,219.081 190.5,220.5C 189.406,209.507 188.406,198.507 187.5,187.5C 188.5,187.5 189.5,187.5 190.5,187.5C 190.922,196.829 191.255,206.163 191.5,215.5 Z"/></g>
<g><path style="opacity:1" fill="#2c4478" d="M 232.5,188.5 C 243.08,187.711 253.413,188.877 263.5,192C 264.451,192.718 264.617,193.551 264,194.5C 247.456,188.756 231.122,189.423 215,196.5C 213,195.833 213,195.167 215,194.5C 220.716,191.79 226.549,189.79 232.5,188.5 Z"/></g>
<g><path style="opacity:1" fill="#2d4378" d="M 138.5,188.5 C 152.506,187.235 165.839,189.569 178.5,195.5C 178,195.833 177.5,196.167 177,196.5C 161.034,189.459 144.867,188.793 128.5,194.5C 127.289,193.726 127.289,192.893 128.5,192C 131.942,190.816 135.275,189.65 138.5,188.5 Z"/></g>
<g><path style="opacity:1" fill="#2e467a" d="M 235.5,179.5 C 245.7,178.484 255.367,180.151 264.5,184.5C 264,184.833 263.5,185.167 263,185.5C 247.209,179.664 231.709,180.331 216.5,187.5C 215.289,186.726 215.289,185.893 216.5,185C 222.817,182.675 229.15,180.842 235.5,179.5 Z"/></g>
<g><path style="opacity:1" fill="#2d447e" d="M 141.5,179.5 C 154.143,178.744 166.143,181.078 177.5,186.5C 177,186.833 176.5,187.167 176,187.5C 160.386,180.647 144.553,179.98 128.5,185.5C 128.167,185.167 127.833,184.833 127.5,184.5C 131.842,181.61 136.509,179.944 141.5,179.5 Z"/></g>
<g><path style="opacity:1" fill="#587a9b" d="M 211.5,182.5 C 206.712,181.172 201.546,180.505 196,180.5C 190.454,180.505 185.288,181.172 180.5,182.5C 179.596,181.791 179.263,180.791 179.5,179.5C 190.5,179.5 201.5,179.5 212.5,179.5C 212.737,180.791 212.404,181.791 211.5,182.5 Z"/></g>
<g><path style="opacity:1" fill="#30457b" d="M 136.5,171.5 C 147.296,170.932 157.963,171.766 168.5,174C 170.645,174.743 170.811,175.576 169,176.5C 158.352,173.616 147.519,172.783 136.5,174C 133.488,174.78 130.655,175.947 128,177.5C 127.517,176.552 127.351,175.552 127.5,174.5C 130.854,174.253 133.854,173.253 136.5,171.5 Z"/></g>
<g><path style="opacity:1" fill="#284076" d="M 231.5,171.5 C 242.685,170.84 253.685,171.84 264.5,174.5C 264.649,175.552 264.483,176.552 264,177.5C 250.376,171.171 236.543,170.837 222.5,176.5C 221.167,175.833 221.167,175.167 222.5,174.5C 225.582,173.365 228.582,172.365 231.5,171.5 Z"/></g>
<g><path style="opacity:1" fill="#153d75" d="M 174.5,168.5 C 188.833,168.5 203.167,168.5 217.5,168.5C 217.5,171.5 217.5,174.5 217.5,177.5C 203.167,177.5 188.833,177.5 174.5,177.5C 174.5,174.5 174.5,171.5 174.5,168.5 Z"/></g>
<g><path style="opacity:1" fill="#30427a" d="M 233.5,162.5 C 241.547,162.277 249.547,162.777 257.5,164C 260,164.885 262.333,166.052 264.5,167.5C 264.167,167.833 263.833,168.167 263.5,168.5C 251.909,164.039 240.075,163.372 228,166.5C 226.174,165.99 226.007,165.156 227.5,164C 229.708,163.809 231.708,163.309 233.5,162.5 Z"/></g>
<g><path style="opacity:1" fill="#2a3f78" d="M 139.5,162.5 C 145.176,162.334 150.843,162.501 156.5,163C 159.702,163.198 162.702,164.031 165.5,165.5C 163.234,166.206 160.901,166.039 158.5,165C 150.125,164.262 141.792,164.595 133.5,166C 131.833,166.833 130.167,167.667 128.5,168.5C 127.289,167.726 127.289,166.893 128.5,166C 132.114,164.409 135.78,163.242 139.5,162.5 Z"/></g>
<g><path style="opacity:1" fill="#2c4376" d="M 141.5,153.5 C 146.179,153.334 150.845,153.501 155.5,154C 157.715,154.17 159.715,154.837 161.5,156C 150.218,154.52 139.218,155.687 128.5,159.5C 127.396,158.369 127.729,157.535 129.5,157C 133.531,155.509 137.531,154.343 141.5,153.5 Z"/></g>
<g><path style="opacity:1" fill="#304877" d="M 234.5,153.5 C 245.03,152.442 255.03,154.109 264.5,158.5C 261.758,159.218 259.091,158.718 256.5,157C 249.013,155.472 241.513,155.306 234,156.5C 233.167,156.167 232.333,155.833 231.5,155.5C 232.602,154.824 233.602,154.158 234.5,153.5 Z"/></g>
<g><path style="opacity:1" fill="#124178" d="M 164.5,151.5 C 185.5,151.5 206.5,151.5 227.5,151.5C 226.729,156.311 225.062,160.811 222.5,165C 204.833,165.667 187.167,165.667 169.5,165C 167.127,160.756 165.461,156.256 164.5,151.5 Z"/></g>
<g><path style="opacity:1" fill="#fcfef9" d="M 275.5,132.5 C 277.027,132.427 278.027,133.094 278.5,134.5C 277.502,164.662 277.169,194.995 277.5,225.5C 275.801,225.66 274.134,225.494 272.5,225C 273.448,224.517 274.448,224.351 275.5,224.5C 275.5,193.833 275.5,163.167 275.5,132.5 Z"/></g>
<g><path style="opacity:1" fill="#b9c7d2" d="M 115.5,132.5 C 115.56,131.957 115.893,131.624 116.5,131.5C 117.5,162.159 117.833,192.826 117.5,223.5C 116.833,193.167 116.167,162.833 115.5,132.5 Z"/></g>
<g><path style="opacity:1" fill="#2f4379" d="M 231.5,145.5 C 242.407,144.744 253.074,145.91 263.5,149C 264.711,149.893 264.711,150.726 263.5,151.5C 260.06,149.631 256.393,148.465 252.5,148C 245.296,147.219 238.129,147.386 231,148.5C 229.775,148.138 228.609,147.638 227.5,147C 229.058,146.79 230.391,146.29 231.5,145.5 Z"/></g>
<g><path style="opacity:1" fill="#354b80" d="M 138.5,145.5 C 144.842,145.334 151.175,145.5 157.5,146C 159.256,146.202 160.922,146.702 162.5,147.5C 154.624,147.443 146.624,147.61 138.5,148C 134.748,148.462 131.248,149.628 128,151.5C 127.383,150.551 127.549,149.718 128.5,149C 131.85,147.514 135.184,146.347 138.5,145.5 Z"/></g>
<g><path style="opacity:1" fill="#2c4375" d="M 234.5,136.5 C 239.844,136.334 245.177,136.501 250.5,137C 255.509,137.583 260.176,139.083 264.5,141.5C 264.167,141.833 263.833,142.167 263.5,142.5C 249.506,137.21 235.506,137.21 221.5,142.5C 221.167,142.167 220.833,141.833 220.5,141.5C 221.665,140.416 222.998,139.583 224.5,139C 228.09,138.689 231.423,137.856 234.5,136.5 Z"/></g>
<g><path style="opacity:1" fill="#263a70" d="M 140.5,136.5 C 149.281,136.163 157.947,136.996 166.5,139C 168.421,139.36 170.088,140.194 171.5,141.5C 168.564,141.866 165.564,141.366 162.5,140C 150.881,137.434 139.547,138.267 128.5,142.5C 127.167,141.833 127.167,141.167 128.5,140.5C 132.565,139.033 136.565,137.7 140.5,136.5 Z"/></g>
<g><path style="opacity:1" fill="#384a80" d="M 236.5,127.5 C 246.212,127.229 255.545,128.896 264.5,132.5C 264,132.833 263.5,133.167 263,133.5C 250.608,128.618 238.108,128.284 225.5,132.5C 224.396,131.369 224.729,130.535 226.5,130C 230.038,129.465 233.372,128.632 236.5,127.5 Z"/></g>
<g><path style="opacity:1" fill="#394c83" d="M 141.5,127.5 C 150.461,127.161 159.128,128.494 167.5,131.5C 167.167,131.833 166.833,132.167 166.5,132.5C 153.351,127.936 140.518,128.602 128,134.5C 127.251,133.365 127.417,132.365 128.5,131.5C 132.946,130.126 137.279,128.793 141.5,127.5 Z"/></g>
<g><path style="opacity:1" fill="#051c44" d="M 101.5,101.5 C 99.8472,135.449 98.8472,169.449 98.5,203.5C 98.5,169.5 98.5,135.5 98.5,101.5C 99.5,101.5 100.5,101.5 101.5,101.5 Z"/></g>
<g><path style="opacity:1" fill="#ffeec4" d="M 289.5,100.5 C 291.167,100.5 292.833,100.5 294.5,100.5C 294.832,135.337 294.498,170.004 293.5,204.5C 293.5,170.167 293.5,135.833 293.5,101.5C 291.901,101.768 290.568,101.434 289.5,100.5 Z"/></g>
<g><path style="opacity:1" fill="#f18c39" d="M 193.5,82.5 C 194.076,86.2318 195.243,89.8984 197,93.5C 202.385,99.8838 207.385,106.55 212,113.5C 212.942,117.468 213.775,121.468 214.5,125.5C 215.764,123.709 216.431,121.709 216.5,119.5C 215.732,116.846 215.566,114.179 216,111.5C 223.896,122.981 223.063,133.814 213.5,144C 210.756,145.691 207.923,147.191 205,148.5C 204.5,148.167 204,147.833 203.5,147.5C 209.949,140.708 210.116,133.708 204,126.5C 202.228,145.132 193.062,150.298 176.5,142C 168.077,131.068 168.577,120.568 178,110.5C 176.854,115.034 176.521,119.7 177,124.5C 178.373,128.706 181.207,131.373 185.5,132.5C 186.442,132.392 187.275,132.059 188,131.5C 188.714,126.581 187.381,122.247 184,118.5C 181.263,111.492 182.263,105.159 187,99.5C 186.279,105.681 188.113,110.848 192.5,115C 197.59,115.829 199.424,113.662 198,108.5C 191.243,100.786 189.743,92.1194 193.5,82.5 Z"/></g>
<g><path style="opacity:1" fill="#fdc02e" d="M 289.5,100.5 C 290.568,101.434 291.901,101.768 293.5,101.5C 293.5,135.833 293.5,170.167 293.5,204.5C 293.55,211.615 292.884,218.615 291.5,225.5C 289.5,225.5 287.5,225.5 285.5,225.5C 283.836,196.681 282.836,167.681 282.5,138.5C 281.564,137.026 280.23,136.026 278.5,135.5C 278.5,135.167 278.5,134.833 278.5,134.5C 278.027,133.094 277.027,132.427 275.5,132.5C 275.5,131.833 275.167,131.5 274.5,131.5C 274.5,129.5 273.5,128.5 271.5,128.5C 270.106,126.292 268.106,124.792 265.5,124C 252.486,119.095 239.152,118.262 225.5,121.5C 224.142,117.589 222.308,113.923 220,110.5C 213.301,104.136 206.968,97.4692 201,90.5C 198.637,85.5663 196.804,80.5663 195.5,75.5C 195.5,73.5 195.5,71.5 195.5,69.5C 195.435,69.0618 195.601,68.7284 196,68.5C 225.118,84.9666 256.284,95.6333 289.5,100.5 Z"/></g>
<g><path style="opacity:1" fill="#f0f3f1" d="M 194.5,313.5 C 195.167,314.833 195.833,314.833 196.5,313.5C 211.149,307.445 225.816,301.279 240.5,295C 246.17,292.167 251.503,288.834 256.5,285C 255.552,284.517 254.552,284.351 253.5,284.5C 257.311,283.355 261.311,283.188 265.5,284C 257.119,291.521 247.786,297.521 237.5,302C 223.694,307.989 209.861,313.822 196,319.5C 180.519,313.568 165.352,307.068 150.5,300C 141.956,295.451 133.956,290.118 126.5,284C 129.167,283.333 131.833,283.333 134.5,284C 142.336,289.755 150.669,294.755 159.5,299C 171.192,303.849 182.859,308.682 194.5,313.5 Z"/></g>
<g><path style="opacity:1" fill="#937d48" d="M 196.5,287.5 C 196.5,296.167 196.5,304.833 196.5,313.5C 195.833,314.833 195.167,314.833 194.5,313.5C 195.167,304.833 195.833,296.167 196.5,287.5 Z"/></g>
<g><path style="opacity:1" fill="#fbc030" d="M 253.5,284.5 C 254.552,284.351 255.552,284.517 256.5,285C 251.503,288.834 246.17,292.167 240.5,295C 225.816,301.279 211.149,307.445 196.5,313.5C 196.5,304.833 196.5,296.167 196.5,287.5C 215.555,287.455 234.555,286.455 253.5,284.5 Z"/></g>
</svg>
