<?xml version="1.0" encoding="UTF-8"?>
<!DOCTYPE svg PUBLIC "-//W3C//DTD SVG 1.1//EN" "http://www.w3.org/Graphics/SVG/1.1/DTD/svg11.dtd">
<svg xmlns="http://www.w3.org/2000/svg" version="1.1" width="512px" height="512px" style="shape-rendering:geometricPrecision; text-rendering:geometricPrecision; image-rendering:optimizeQuality; fill-rule:evenodd; clip-rule:evenodd" xmlns:xlink="http://www.w3.org/1999/xlink">
<g><path style="opacity:1" fill="#017ea2" d="M 235.5,47.5 C 312.625,42.995 375.125,70.6616 423,130.5C 467.783,195.441 475.783,264.774 447,338.5C 412.807,410.654 355.974,452.154 276.5,463C 204.243,468.268 144.076,444.101 96,390.5C 50.3933,333.144 36.7266,268.81 55,197.5C 78.4382,123.728 127.272,75.895 201.5,54C 212.87,51.2751 224.203,49.1084 235.5,47.5 Z"/></g>
<g><path style="opacity:1" fill="#13e3e9" d="M 392.5,365.5 C 390.54,358.914 387.54,352.914 383.5,347.5C 360.161,311.415 326.828,291.581 283.5,288C 263.167,287.333 242.833,287.333 222.5,288C 174.117,295.227 139.117,320.727 117.5,364.5C 80.3932,314.868 70.5598,260.201 88,200.5C 114.569,130.266 165.069,90.0992 239.5,80C 304.278,76.4793 356.778,99.9793 397,150.5C 434.535,205.21 441.202,263.544 417,325.5C 410.564,340.066 402.398,353.4 392.5,365.5 Z"/></g>
<g><path style="opacity:1" fill="#017da1" d="M 244.5,111.5 C 285.672,109.484 314.506,127.151 331,164.5C 341.863,203.581 331.029,235.081 298.5,259C 262.22,278.895 228.72,275.062 198,247.5C 173.69,218.969 169.357,187.636 185,153.5C 198.485,130.507 218.319,116.507 244.5,111.5 Z"/></g>
<g><path style="opacity:1" fill="#b5fefe" d="M 246.5,143.5 C 275.621,141.797 294.454,154.797 303,182.5C 305.622,210.855 293.455,229.355 266.5,238C 237.318,242.328 218.152,230.495 209,202.5C 205.011,172.327 217.511,152.66 246.5,143.5 Z"/></g>
<g><path style="opacity:1" fill="#b5fefe" d="M 383.5,347.5 C 387.54,352.914 390.54,358.914 392.5,365.5C 352.399,413.054 301.066,434.887 238.5,431C 202.402,427.192 170.569,413.692 143,390.5C 155.295,351.216 181.795,327.716 222.5,320C 244.167,319.333 265.833,319.333 287.5,320C 317.032,324.876 340.365,339.543 357.5,364C 364.098,368.589 370.765,368.589 377.5,364C 381.97,359.426 383.97,353.926 383.5,347.5 Z"/></g>
</svg>